<svg preserveAspectRatio="none" overflow="visible" style="display: block;" width="12" height="12" viewBox="0 0 12 12" fill="none" xmlns="http://www.w3.org/2000/svg">
<g id="plug">
<path id="Vector" d="M6 11.0004V8.5002M7.5 3.99984V0.9996M4.5 3.99984V0.9996M8.5 3.99984C8.63261 3.99984 8.75979 4.05252 8.85355 4.1463C8.94732 4.24007 9 4.36726 9 4.49988V6.50004C9 7.03052 8.78929 7.53926 8.41421 7.91437C8.03914 8.28947 7.53043 8.5002 7 8.5002H5C4.46957 8.5002 3.96086 8.28947 3.58579 7.91437C3.21071 7.53926 3 7.03052 3 6.50004V4.49988C3 4.36726 3.05268 4.24007 3.14645 4.1463C3.24021 4.05252 3.36739 3.99984 3.5 3.99984H8.5Z" stroke="#71717A" stroke-width="2" stroke-linecap="round"/>
</g>
</svg>
